<svg xmlns:xlink="http://www.w3.org/1999/xlink" xmlns="http://www.w3.org/2000/svg" viewBox="0 0 80 80" width="80"  height="80" ><defs><path id="rating-12_svg__a" d="M0 0h80v79.999H.001z"></path><path id="rating-12_svg__a" d="M0 0h80v79.999H.001z"></path></defs><g fill="none" fill-rule="evenodd"><mask id="rating-12_svg__b" fill="#fff"><use xlink:href="#rating-12_svg__a"></use></mask><path d="M40 78.597C18.686 78.597 1.404 61.317 1.404 40 1.404 18.684 18.686 1.404 40 1.404c21.316 0 38.598 17.28 38.598 38.596 0 21.317-17.282 38.597-38.598 38.597M40 0C17.909 0 0 17.909 0 40c0 22.092 17.91 39.999 40 39.999 22.093 0 40-17.907 40-40C80 17.91 62.093 0 40 0" fill="#000" mask="url(#rating-12_svg__b)"></path><path d="M40 75.088c-19.378 0-35.087-15.708-35.087-35.087C4.913 20.623 20.622 4.913 40 4.913c19.379 0 35.088 15.71 35.088 35.088 0 19.379-15.71 35.087-35.088 35.087m0-73.684C18.686 1.403 1.404 18.683 1.404 40S18.686 78.596 40 78.596c21.316 0 38.598-17.28 38.598-38.596C78.598 18.685 61.316 1.404 40 1.404" fill="#FFFFFF"></path><path d="M40 4.912C20.622 4.912 4.913 20.622 4.913 40c0 19.38 15.709 35.088 35.087 35.088 19.379 0 35.088-15.709 35.088-35.088 0-19.378-15.71-35.088-35.088-35.088" fill="#FF7D13"></path><path d="M32.186 25.522v28.077H27.07V37.543c0-2.663 0-3.453-2.29-3.453h-4.574v-3.203h.54c2.622-.041 6.158-.083 7.28-5.365h4.159zm23.701 23.751V53.6H36.794v-4.034c3.578-2.455 7.114-5.824 8.78-7.529 1.538-1.58 4.116-4.285 4.116-7.988 0-2.163-1.08-4.2-3.7-4.2-4.12 0-3.996 4.492-3.954 6.488l-5.242-.457c0-3.952 1.291-6.489 2.371-7.779 1.54-1.788 4.201-3.035 7.24-3.035 5.322 0 9.024 3.451 9.024 8.776 0 4.534-2.786 7.78-5.862 10.565-.625.541-4.368 3.702-5.95 4.867h12.27z" fill="#FFFFFF"></path></g></svg>