<?xml version="1.0" encoding="UTF-8" standalone="no"?>
<svg
   xmlns:dc="http://purl.org/dc/elements/1.1/"
   xmlns:cc="http://creativecommons.org/ns#"
   xmlns:rdf="http://www.w3.org/1999/02/22-rdf-syntax-ns#"
   xmlns:svg="http://www.w3.org/2000/svg"
   xmlns="http://www.w3.org/2000/svg"
   xmlns:sodipodi="http://sodipodi.sourceforge.net/DTD/sodipodi-0.dtd"
   xmlns:inkscape="http://www.inkscape.org/namespaces/inkscape"
   width="113.36711mm"
   height="60.422665mm"
   viewBox="0 0 113.36712 60.422665"
   version="1.1"
   id="svg6283"
   inkscape:version="1.0.2 (e86c8708, 2021-01-15)"
   sodipodi:docname="NC-17.svg"
   inkscape:export-filename="C:\Users\tjdru\OneDrive\Pictures\Logos\Movies\mpaanc17rating2013.png"
   inkscape:export-xdpi="133.17113"
   inkscape:export-ydpi="133.17113">
  <defs
     id="defs6277" />
  <sodipodi:namedview
     id="base"
     pagecolor="#ffffff"
     bordercolor="#666666"
     borderopacity="1.0"
     inkscape:pageopacity="0.0"
     inkscape:pageshadow="2"
     inkscape:zoom="3.8518519"
     inkscape:cx="221.5"
     inkscape:cy="121.5"
     inkscape:document-units="mm"
     inkscape:current-layer="layer2"
     showgrid="true"
     inkscape:window-width="2560"
     inkscape:window-height="1555"
     inkscape:window-x="0"
     inkscape:window-y="23"
     inkscape:window-maximized="1"
     inkscape:snap-global="false"
     inkscape:document-rotation="0">
    <inkscape:grid
       type="xygrid"
       id="grid53"
       originx="-5.820833"
       originy="-0.7937521" />
  </sodipodi:namedview>
  <metadata
     id="metadata6280">
    <rdf:RDF>
      <cc:Work
         rdf:about="">
        <dc:format>image/svg+xml</dc:format>
        <dc:type
           rdf:resource="http://purl.org/dc/dcmitype/StillImage" />
        <dc:title />
      </cc:Work>
    </rdf:RDF>
  </metadata>
  <g
     inkscape:groupmode="layer"
     id="layer2"
     inkscape:label="bg">
    <path
       style="fill:#ffffff;stroke-width:0.235932"
       d="M 6.4234377,35.685617 V 17.167596 H 56.512675 106.60191 V 35.685617 54.203639 H 56.512675 6.4234377 Z M 54.621589,46.2584 c 2.529144,-0.505772 3.714678,-1.253567 4.294739,-2.708972 0.882763,-2.214913 -0.98083,-2.913787 -3.565425,-1.337091 -1.658329,1.01164 -3.834007,1.483622 -6.277077,1.361721 -2.393952,-0.119452 -3.043906,-0.474568 -3.934069,-2.149457 -0.580327,-1.091915 -0.604942,-1.311408 -0.604942,-5.393927 0,-4.079334 0.02507,-4.30336 0.604942,-5.405882 0.830266,-1.578603 2.090741,-2.185357 4.539863,-2.185357 2.764067,0 3.273818,0.393928 3.951871,3.053964 0.367157,1.44037 1.118145,2.006862 2.660455,2.006862 1.699986,0 2.351124,-0.359857 2.669327,-1.475219 0.292279,-1.024498 0.138928,-3.547903 -0.258514,-4.253889 -0.392412,-0.697051 -1.723274,-1.359025 -3.539357,-1.760491 -1.310603,-0.289723 -2.676582,-0.353637 -6.273002,-0.293516 -4.471288,0.07475 -4.635606,0.09462 -5.9827,0.723482 -3.226434,1.506196 -4.693281,4.420422 -4.94285,9.820084 -0.156408,3.384077 0.238943,5.607567 1.323997,7.44628 0.912844,1.546889 2.921645,2.584195 5.608933,2.896342 2.330204,0.270669 7.575961,0.08459 9.723809,-0.344934 z M 21.856125,46.2543 c 0.601479,-0.400506 0.702112,-1.066187 0.218819,-1.447492 -0.175435,-0.138416 -0.887177,-0.36751 -1.581645,-0.509098 -1.967426,-0.401119 -1.992274,-0.479997 -1.915532,-6.080898 l 0.06551,-4.781189 5.046357,6.3324 c 2.775497,3.48282 5.312305,6.447595 5.637353,6.588389 0.656956,0.284558 3.925989,0.344727 4.343134,0.07994 0.752939,-0.477946 0.822648,-1.252078 0.822648,-9.135804 v -7.961873 l 0.593945,-0.564639 c 0.326669,-0.310551 0.801987,-0.564636 1.056264,-0.564636 0.575998,0 1.73747,-0.84595 1.73747,-1.265473 0,-0.17156 -0.171112,-0.474597 -0.38025,-0.673415 -0.319984,-0.304195 -1.136874,-0.361488 -5.154111,-0.361488 -5.026632,0 -5.354604,0.0645 -5.354604,1.053009 0,0.635679 0.356435,0.909198 1.594918,1.223906 1.848516,0.469718 1.903397,0.627827 1.992589,5.740699 0.06827,3.913136 0.03268,4.473141 -0.265156,4.174376 -0.189197,-0.189782 -2.284388,-2.725945 -4.65598,-5.63592 -2.371592,-2.909975 -4.58655,-5.575535 -4.922128,-5.923467 l -0.610143,-0.632603 h -4.172041 c -3.470128,0 -4.236015,0.06082 -4.55229,0.361488 -0.88414,0.840513 -0.173473,1.740282 1.609104,2.03727 1.624685,0.270681 1.6403,0.345487 1.6403,7.858073 0,6.369114 -0.02431,6.733288 -0.486903,7.292355 -0.267796,0.323651 -0.839467,0.658324 -1.270378,0.743717 -1.18514,0.234858 -1.872374,0.7374 -1.872374,1.369178 0,0.307098 0.190558,0.663874 0.42346,0.792834 0.247089,0.136814 2.391508,0.237387 5.148664,0.241468 3.893549,0.0058 4.819859,-0.05603 5.263001,-0.351105 z m 71.49933,0.07055 c 0.218211,-0.158152 1.316879,-2.306127 2.441481,-4.773279 1.124605,-2.467153 2.872451,-6.230804 3.884092,-8.363666 1.544072,-3.255365 1.839372,-4.07298 1.839372,-5.092852 0,-0.853629 -0.13761,-1.376411 -0.46271,-1.757985 l -0.46271,-0.54307 h -6.49413 c -7.102942,0 -8.00965,0.121805 -9.344027,1.255243 -0.726884,0.617426 -0.779415,0.767987 -0.860552,2.466506 -0.107985,2.260572 0.252346,2.818469 1.93697,2.99898 1.701357,0.182306 2.745572,-0.242031 3.189168,-1.295982 0.203519,-0.483546 0.567138,-0.956584 0.808046,-1.051196 0.610967,-0.239947 5.156563,-0.448076 5.156563,-0.236104 0,0.09532 -1.372716,2.981749 -3.050477,6.414298 -4.380266,8.961616 -4.598864,9.474827 -4.220372,9.908379 0.403791,0.462532 5.018819,0.520414 5.639286,0.07072 z M 83.343806,45.873359 c 0.417418,-1.072709 0.110396,-1.37263 -1.701704,-1.662353 -1.571562,-0.251267 -1.529384,0.0011 -1.608168,-9.625842 l -0.0715,-8.736646 -2.348267,0.117132 c -2.484478,0.123927 -6.669138,1.208437 -7.421075,1.923268 -1.089644,1.035881 0.09601,2.320023 1.92236,2.082047 1.934529,-0.252072 1.913587,-0.337322 1.711034,6.965679 -0.09656,3.481653 -0.276307,6.509214 -0.399424,6.727912 -0.123119,0.218698 -0.630866,0.459413 -1.128324,0.534926 -1.2314,0.186914 -1.616376,0.41467 -1.709474,1.011339 -0.176134,1.128833 0.06187,1.171541 6.528886,1.171541 5.999743,0 6.028508,-0.0024 6.225659,-0.509003 z M 68.192204,37.928483 c 0.987927,-1.04216 0.680365,-3.024142 -0.5441,-3.506307 -0.440058,-0.173283 -1.60316,-0.246251 -3.128952,-0.196296 -2.079415,0.06808 -2.501625,0.149064 -2.936985,0.563339 -0.769221,0.731963 -0.882286,2.12913 -0.23543,2.909227 0.521286,0.628658 0.543074,0.632603 3.494204,0.632603 2.521541,0 3.027231,-0.06074 3.351263,-0.402566 z"
       id="path915" />
    <path
       style="fill:#ffffff;stroke-width:0.235932"
       d="M 6.4234377,35.685617 V 17.167596 H 56.512675 106.60191 V 35.685617 54.203639 H 56.512675 6.4234377 Z M 54.621589,46.2584 c 2.529144,-0.505772 3.714678,-1.253567 4.294739,-2.708972 0.882763,-2.214913 -0.98083,-2.913787 -3.565425,-1.337091 -1.658329,1.01164 -3.834007,1.483622 -6.277077,1.361721 -2.393952,-0.119452 -3.043906,-0.474568 -3.934069,-2.149457 -0.580327,-1.091915 -0.604942,-1.311408 -0.604942,-5.393927 0,-4.079334 0.02507,-4.30336 0.604942,-5.405882 0.830266,-1.578603 2.090741,-2.185357 4.539863,-2.185357 2.764067,0 3.273818,0.393928 3.951871,3.053964 0.367157,1.44037 1.118145,2.006862 2.660455,2.006862 1.699986,0 2.351124,-0.359857 2.669327,-1.475219 0.292279,-1.024498 0.138928,-3.547903 -0.258514,-4.253889 -0.392412,-0.697051 -1.723274,-1.359025 -3.539357,-1.760491 -1.310603,-0.289723 -2.676582,-0.353637 -6.273002,-0.293516 -4.471288,0.07475 -4.635606,0.09462 -5.9827,0.723482 -3.226434,1.506196 -4.693281,4.420422 -4.94285,9.820084 -0.156408,3.384077 0.238943,5.607567 1.323997,7.44628 0.912844,1.546889 2.921645,2.584195 5.608933,2.896342 2.330204,0.270669 7.575961,0.08459 9.723809,-0.344934 z M 21.856125,46.2543 c 0.601479,-0.400506 0.702112,-1.066187 0.218819,-1.447492 -0.175435,-0.138416 -0.887177,-0.36751 -1.581645,-0.509098 -1.967426,-0.401119 -1.992274,-0.479997 -1.915532,-6.080898 l 0.06551,-4.781189 5.046357,6.3324 c 2.775497,3.48282 5.312305,6.447595 5.637353,6.588389 0.656956,0.284558 3.925989,0.344727 4.343134,0.07994 0.752939,-0.477946 0.822648,-1.252078 0.822648,-9.135804 v -7.961873 l 0.593945,-0.564639 c 0.326669,-0.310551 0.801987,-0.564636 1.056264,-0.564636 0.575998,0 1.73747,-0.84595 1.73747,-1.265473 0,-0.17156 -0.171112,-0.474597 -0.38025,-0.673415 -0.319984,-0.304195 -1.136874,-0.361488 -5.154111,-0.361488 -5.026632,0 -5.354604,0.0645 -5.354604,1.053009 0,0.635679 0.356435,0.909198 1.594918,1.223906 1.848516,0.469718 1.903397,0.627827 1.992589,5.740699 0.06827,3.913136 0.03268,4.473141 -0.265156,4.174376 -0.189197,-0.189782 -2.284388,-2.725945 -4.65598,-5.63592 -2.371592,-2.909975 -4.58655,-5.575535 -4.922128,-5.923467 l -0.610143,-0.632603 h -4.172041 c -3.470128,0 -4.236015,0.06082 -4.55229,0.361488 -0.88414,0.840513 -0.173473,1.740282 1.609104,2.03727 1.624685,0.270681 1.6403,0.345487 1.6403,7.858073 0,6.369114 -0.02431,6.733288 -0.486903,7.292355 -0.267796,0.323651 -0.839467,0.658324 -1.270378,0.743717 -1.18514,0.234858 -1.872374,0.7374 -1.872374,1.369178 0,0.307098 0.190558,0.663874 0.42346,0.792834 0.247089,0.136814 2.391508,0.237387 5.148664,0.241468 3.893549,0.0058 4.819859,-0.05603 5.263001,-0.351105 z m 71.49933,0.07055 c 0.218211,-0.158152 1.316879,-2.306127 2.441481,-4.773279 1.124605,-2.467153 2.872451,-6.230804 3.884092,-8.363666 1.544072,-3.255365 1.839372,-4.07298 1.839372,-5.092852 0,-0.853629 -0.13761,-1.376411 -0.46271,-1.757985 l -0.46271,-0.54307 h -6.49413 c -7.102942,0 -8.00965,0.121805 -9.344027,1.255243 -0.726884,0.617426 -0.779415,0.767987 -0.860552,2.466506 -0.107985,2.260572 0.252346,2.818469 1.93697,2.99898 1.701357,0.182306 2.745572,-0.242031 3.189168,-1.295982 0.203519,-0.483546 0.567138,-0.956584 0.808046,-1.051196 0.610967,-0.239947 5.156563,-0.448076 5.156563,-0.236104 0,0.09532 -1.372716,2.981749 -3.050477,6.414298 -4.380266,8.961616 -4.598864,9.474827 -4.220372,9.908379 0.403791,0.462532 5.018819,0.520414 5.639286,0.07072 z M 83.343806,45.873359 c 0.417418,-1.072709 0.110396,-1.37263 -1.701704,-1.662353 -1.571562,-0.251267 -1.529384,0.0011 -1.608168,-9.625842 l -0.0715,-8.736646 -2.348267,0.117132 c -2.484478,0.123927 -6.669138,1.208437 -7.421075,1.923268 -1.089644,1.035881 0.09601,2.320023 1.92236,2.082047 1.934529,-0.252072 1.913587,-0.337322 1.711034,6.965679 -0.09656,3.481653 -0.276307,6.509214 -0.399424,6.727912 -0.123119,0.218698 -0.630866,0.459413 -1.128324,0.534926 -1.2314,0.186914 -1.616376,0.41467 -1.709474,1.011339 -0.176134,1.128833 0.06187,1.171541 6.528886,1.171541 5.999743,0 6.028508,-0.0024 6.225659,-0.509003 z M 68.192204,37.928483 c 0.987927,-1.04216 0.680365,-3.024142 -0.5441,-3.506307 -0.440058,-0.173283 -1.60316,-0.246251 -3.128952,-0.196296 -2.079415,0.06808 -2.501625,0.149064 -2.936985,0.563339 -0.769221,0.731963 -0.882286,2.12913 -0.23543,2.909227 0.521286,0.628658 0.543074,0.632603 3.494204,0.632603 2.521541,0 3.027231,-0.06074 3.351263,-0.402566 z"
       id="path917" />
    <path
       style="fill:#ffffff;stroke-width:0.235932"
       d="M 6.4234377,35.685617 V 17.167596 H 56.512675 106.60191 V 35.685617 54.203639 H 56.512675 6.4234377 Z M 54.621589,46.2584 c 2.529144,-0.505772 3.714678,-1.253567 4.294739,-2.708972 0.882763,-2.214913 -0.98083,-2.913787 -3.565425,-1.337091 -1.658329,1.01164 -3.834007,1.483622 -6.277077,1.361721 -2.393952,-0.119452 -3.043906,-0.474568 -3.934069,-2.149457 -0.580327,-1.091915 -0.604942,-1.311408 -0.604942,-5.393927 0,-4.079334 0.02507,-4.30336 0.604942,-5.405882 0.830266,-1.578603 2.090741,-2.185357 4.539863,-2.185357 2.764067,0 3.273818,0.393928 3.951871,3.053964 0.367157,1.44037 1.118145,2.006862 2.660455,2.006862 1.699986,0 2.351124,-0.359857 2.669327,-1.475219 0.292279,-1.024498 0.138928,-3.547903 -0.258514,-4.253889 -0.392412,-0.697051 -1.723274,-1.359025 -3.539357,-1.760491 -1.310603,-0.289723 -2.676582,-0.353637 -6.273002,-0.293516 -4.471288,0.07475 -4.635606,0.09462 -5.9827,0.723482 -3.226434,1.506196 -4.693281,4.420422 -4.94285,9.820084 -0.156408,3.384077 0.238943,5.607567 1.323997,7.44628 0.912844,1.546889 2.921645,2.584195 5.608933,2.896342 2.330204,0.270669 7.575961,0.08459 9.723809,-0.344934 z M 21.856125,46.2543 c 0.601479,-0.400506 0.702112,-1.066187 0.218819,-1.447492 -0.175435,-0.138416 -0.887177,-0.36751 -1.581645,-0.509098 -1.967426,-0.401119 -1.992274,-0.479997 -1.915532,-6.080898 l 0.06551,-4.781189 5.046357,6.3324 c 2.775497,3.48282 5.312305,6.447595 5.637353,6.588389 0.656956,0.284558 3.925989,0.344727 4.343134,0.07994 0.752939,-0.477946 0.822648,-1.252078 0.822648,-9.135804 v -7.961873 l 0.593945,-0.564639 c 0.326669,-0.310551 0.801987,-0.564636 1.056264,-0.564636 0.575998,0 1.73747,-0.84595 1.73747,-1.265473 0,-0.17156 -0.171112,-0.474597 -0.38025,-0.673415 -0.319984,-0.304195 -1.136874,-0.361488 -5.154111,-0.361488 -5.026632,0 -5.354604,0.0645 -5.354604,1.053009 0,0.635679 0.356435,0.909198 1.594918,1.223906 1.848516,0.469718 1.903397,0.627827 1.992589,5.740699 0.06827,3.913136 0.03268,4.473141 -0.265156,4.174376 -0.189197,-0.189782 -2.284388,-2.725945 -4.65598,-5.63592 -2.371592,-2.909975 -4.58655,-5.575535 -4.922128,-5.923467 l -0.610143,-0.632603 h -4.172041 c -3.470128,0 -4.236015,0.06082 -4.55229,0.361488 -0.88414,0.840513 -0.173473,1.740282 1.609104,2.03727 1.624685,0.270681 1.6403,0.345487 1.6403,7.858073 0,6.369114 -0.02431,6.733288 -0.486903,7.292355 -0.267796,0.323651 -0.839467,0.658324 -1.270378,0.743717 -1.18514,0.234858 -1.872374,0.7374 -1.872374,1.369178 0,0.307098 0.190558,0.663874 0.42346,0.792834 0.247089,0.136814 2.391508,0.237387 5.148664,0.241468 3.893549,0.0058 4.819859,-0.05603 5.263001,-0.351105 z m 71.49933,0.07055 c 0.218211,-0.158152 1.316879,-2.306127 2.441481,-4.773279 1.124605,-2.467153 2.872451,-6.230804 3.884092,-8.363666 1.544072,-3.255365 1.839372,-4.07298 1.839372,-5.092852 0,-0.853629 -0.13761,-1.376411 -0.46271,-1.757985 l -0.46271,-0.54307 h -6.49413 c -7.102942,0 -8.00965,0.121805 -9.344027,1.255243 -0.726884,0.617426 -0.779415,0.767987 -0.860552,2.466506 -0.107985,2.260572 0.252346,2.818469 1.93697,2.99898 1.701357,0.182306 2.745572,-0.242031 3.189168,-1.295982 0.203519,-0.483546 0.567138,-0.956584 0.808046,-1.051196 0.610967,-0.239947 5.156563,-0.448076 5.156563,-0.236104 0,0.09532 -1.372716,2.981749 -3.050477,6.414298 -4.380266,8.961616 -4.598864,9.474827 -4.220372,9.908379 0.403791,0.462532 5.018819,0.520414 5.639286,0.07072 z M 83.343806,45.873359 c 0.417418,-1.072709 0.110396,-1.37263 -1.701704,-1.662353 -1.571562,-0.251267 -1.529384,0.0011 -1.608168,-9.625842 l -0.0715,-8.736646 -2.348267,0.117132 c -2.484478,0.123927 -6.669138,1.208437 -7.421075,1.923268 -1.089644,1.035881 0.09601,2.320023 1.92236,2.082047 1.934529,-0.252072 1.913587,-0.337322 1.711034,6.965679 -0.09656,3.481653 -0.276307,6.509214 -0.399424,6.727912 -0.123119,0.218698 -0.630866,0.459413 -1.128324,0.534926 -1.2314,0.186914 -1.616376,0.41467 -1.709474,1.011339 -0.176134,1.128833 0.06187,1.171541 6.528886,1.171541 5.999743,0 6.028508,-0.0024 6.225659,-0.509003 z M 68.192204,37.928483 c 0.987927,-1.04216 0.680365,-3.024142 -0.5441,-3.506307 -0.440058,-0.173283 -1.60316,-0.246251 -3.128952,-0.196296 -2.079415,0.06808 -2.501625,0.149064 -2.936985,0.563339 -0.769221,0.731963 -0.882286,2.12913 -0.23543,2.909227 0.521286,0.628658 0.543074,0.632603 3.494204,0.632603 2.521541,0 3.027231,-0.06074 3.351263,-0.402566 z"
       id="path919" />
    <path
       style="fill:#ffffff;stroke-width:0.235932"
       d="M 6.4234377,35.685617 V 17.167596 H 56.512675 106.60191 V 35.685617 54.203639 H 56.512675 6.4234377 Z M 54.621589,46.2584 c 2.529144,-0.505772 3.714678,-1.253567 4.294739,-2.708972 0.882763,-2.214913 -0.98083,-2.913787 -3.565425,-1.337091 -1.658329,1.01164 -3.834007,1.483622 -6.277077,1.361721 -2.393952,-0.119452 -3.043906,-0.474568 -3.934069,-2.149457 -0.580327,-1.091915 -0.604942,-1.311408 -0.604942,-5.393927 0,-4.079334 0.02507,-4.30336 0.604942,-5.405882 0.830266,-1.578603 2.090741,-2.185357 4.539863,-2.185357 2.764067,0 3.273818,0.393928 3.951871,3.053964 0.367157,1.44037 1.118145,2.006862 2.660455,2.006862 1.699986,0 2.351124,-0.359857 2.669327,-1.475219 0.292279,-1.024498 0.138928,-3.547903 -0.258514,-4.253889 -0.392412,-0.697051 -1.723274,-1.359025 -3.539357,-1.760491 -1.310603,-0.289723 -2.676582,-0.353637 -6.273002,-0.293516 -4.471288,0.07475 -4.635606,0.09462 -5.9827,0.723482 -3.226434,1.506196 -4.693281,4.420422 -4.94285,9.820084 -0.156408,3.384077 0.238943,5.607567 1.323997,7.44628 0.912844,1.546889 2.921645,2.584195 5.608933,2.896342 2.330204,0.270669 7.575961,0.08459 9.723809,-0.344934 z M 21.856125,46.2543 c 0.601479,-0.400506 0.702112,-1.066187 0.218819,-1.447492 -0.175435,-0.138416 -0.887177,-0.36751 -1.581645,-0.509098 -1.967426,-0.401119 -1.992274,-0.479997 -1.915532,-6.080898 l 0.06551,-4.781189 5.046357,6.3324 c 2.775497,3.48282 5.312305,6.447595 5.637353,6.588389 0.656956,0.284558 3.925989,0.344727 4.343134,0.07994 0.752939,-0.477946 0.822648,-1.252078 0.822648,-9.135804 v -7.961873 l 0.593945,-0.564639 c 0.326669,-0.310551 0.801987,-0.564636 1.056264,-0.564636 0.575998,0 1.73747,-0.84595 1.73747,-1.265473 0,-0.17156 -0.171112,-0.474597 -0.38025,-0.673415 -0.319984,-0.304195 -1.136874,-0.361488 -5.154111,-0.361488 -5.026632,0 -5.354604,0.0645 -5.354604,1.053009 0,0.635679 0.356435,0.909198 1.594918,1.223906 1.848516,0.469718 1.903397,0.627827 1.992589,5.740699 0.06827,3.913136 0.03268,4.473141 -0.265156,4.174376 -0.189197,-0.189782 -2.284388,-2.725945 -4.65598,-5.63592 -2.371592,-2.909975 -4.58655,-5.575535 -4.922128,-5.923467 l -0.610143,-0.632603 h -4.172041 c -3.470128,0 -4.236015,0.06082 -4.55229,0.361488 -0.88414,0.840513 -0.173473,1.740282 1.609104,2.03727 1.624685,0.270681 1.6403,0.345487 1.6403,7.858073 0,6.369114 -0.02431,6.733288 -0.486903,7.292355 -0.267796,0.323651 -0.839467,0.658324 -1.270378,0.743717 -1.18514,0.234858 -1.872374,0.7374 -1.872374,1.369178 0,0.307098 0.190558,0.663874 0.42346,0.792834 0.247089,0.136814 2.391508,0.237387 5.148664,0.241468 3.893549,0.0058 4.819859,-0.05603 5.263001,-0.351105 z m 71.49933,0.07055 c 0.218211,-0.158152 1.316879,-2.306127 2.441481,-4.773279 1.124605,-2.467153 2.872451,-6.230804 3.884092,-8.363666 1.544072,-3.255365 1.839372,-4.07298 1.839372,-5.092852 0,-0.853629 -0.13761,-1.376411 -0.46271,-1.757985 l -0.46271,-0.54307 h -6.49413 c -7.102942,0 -8.00965,0.121805 -9.344027,1.255243 -0.726884,0.617426 -0.779415,0.767987 -0.860552,2.466506 -0.107985,2.260572 0.252346,2.818469 1.93697,2.99898 1.701357,0.182306 2.745572,-0.242031 3.189168,-1.295982 0.203519,-0.483546 0.567138,-0.956584 0.808046,-1.051196 0.610967,-0.239947 5.156563,-0.448076 5.156563,-0.236104 0,0.09532 -1.372716,2.981749 -3.050477,6.414298 -4.380266,8.961616 -4.598864,9.474827 -4.220372,9.908379 0.403791,0.462532 5.018819,0.520414 5.639286,0.07072 z M 83.343806,45.873359 c 0.417418,-1.072709 0.110396,-1.37263 -1.701704,-1.662353 -1.571562,-0.251267 -1.529384,0.0011 -1.608168,-9.625842 l -0.0715,-8.736646 -2.348267,0.117132 c -2.484478,0.123927 -6.669138,1.208437 -7.421075,1.923268 -1.089644,1.035881 0.09601,2.320023 1.92236,2.082047 1.934529,-0.252072 1.913587,-0.337322 1.711034,6.965679 -0.09656,3.481653 -0.276307,6.509214 -0.399424,6.727912 -0.123119,0.218698 -0.630866,0.459413 -1.128324,0.534926 -1.2314,0.186914 -1.616376,0.41467 -1.709474,1.011339 -0.176134,1.128833 0.06187,1.171541 6.528886,1.171541 5.999743,0 6.028508,-0.0024 6.225659,-0.509003 z M 68.192204,37.928483 c 0.987927,-1.04216 0.680365,-3.024142 -0.5441,-3.506307 -0.440058,-0.173283 -1.60316,-0.246251 -3.128952,-0.196296 -2.079415,0.06808 -2.501625,0.149064 -2.936985,0.563339 -0.769221,0.731963 -0.882286,2.12913 -0.23543,2.909227 0.521286,0.628658 0.543074,0.632603 3.494204,0.632603 2.521541,0 3.027231,-0.06074 3.351263,-0.402566 z"
       id="path921" />
    <path
       style="fill:#ffffff;stroke-width:0.235932"
       d="M 6.4234377,35.685617 V 17.167596 H 56.512675 106.60191 V 35.685617 54.203639 H 56.512675 6.4234377 Z M 54.621589,46.2584 c 2.529144,-0.505772 3.714678,-1.253567 4.294739,-2.708972 0.882763,-2.214913 -0.98083,-2.913787 -3.565425,-1.337091 -1.658329,1.01164 -3.834007,1.483622 -6.277077,1.361721 -2.393952,-0.119452 -3.043906,-0.474568 -3.934069,-2.149457 -0.580327,-1.091915 -0.604942,-1.311408 -0.604942,-5.393927 0,-4.079334 0.02507,-4.30336 0.604942,-5.405882 0.830266,-1.578603 2.090741,-2.185357 4.539863,-2.185357 2.764067,0 3.273818,0.393928 3.951871,3.053964 0.367157,1.44037 1.118145,2.006862 2.660455,2.006862 1.699986,0 2.351124,-0.359857 2.669327,-1.475219 0.292279,-1.024498 0.138928,-3.547903 -0.258514,-4.253889 -0.392412,-0.697051 -1.723274,-1.359025 -3.539357,-1.760491 -1.310603,-0.289723 -2.676582,-0.353637 -6.273002,-0.293516 -4.471288,0.07475 -4.635606,0.09462 -5.9827,0.723482 -3.226434,1.506196 -4.693281,4.420422 -4.94285,9.820084 -0.156408,3.384077 0.238943,5.607567 1.323997,7.44628 0.912844,1.546889 2.921645,2.584195 5.608933,2.896342 2.330204,0.270669 7.575961,0.08459 9.723809,-0.344934 z M 21.856125,46.2543 c 0.601479,-0.400506 0.702112,-1.066187 0.218819,-1.447492 -0.175435,-0.138416 -0.887177,-0.36751 -1.581645,-0.509098 -1.967426,-0.401119 -1.992274,-0.479997 -1.915532,-6.080898 l 0.06551,-4.781189 5.046357,6.3324 c 2.775497,3.48282 5.312305,6.447595 5.637353,6.588389 0.656956,0.284558 3.925989,0.344727 4.343134,0.07994 0.752939,-0.477946 0.822648,-1.252078 0.822648,-9.135804 v -7.961873 l 0.593945,-0.564639 c 0.326669,-0.310551 0.801987,-0.564636 1.056264,-0.564636 0.575998,0 1.73747,-0.84595 1.73747,-1.265473 0,-0.17156 -0.171112,-0.474597 -0.38025,-0.673415 -0.319984,-0.304195 -1.136874,-0.361488 -5.154111,-0.361488 -5.026632,0 -5.354604,0.0645 -5.354604,1.053009 0,0.635679 0.356435,0.909198 1.594918,1.223906 1.848516,0.469718 1.903397,0.627827 1.992589,5.740699 0.06827,3.913136 0.03268,4.473141 -0.265156,4.174376 -0.189197,-0.189782 -2.284388,-2.725945 -4.65598,-5.63592 -2.371592,-2.909975 -4.58655,-5.575535 -4.922128,-5.923467 l -0.610143,-0.632603 h -4.172041 c -3.470128,0 -4.236015,0.06082 -4.55229,0.361488 -0.88414,0.840513 -0.173473,1.740282 1.609104,2.03727 1.624685,0.270681 1.6403,0.345487 1.6403,7.858073 0,6.369114 -0.02431,6.733288 -0.486903,7.292355 -0.267796,0.323651 -0.839467,0.658324 -1.270378,0.743717 -1.18514,0.234858 -1.872374,0.7374 -1.872374,1.369178 0,0.307098 0.190558,0.663874 0.42346,0.792834 0.247089,0.136814 2.391508,0.237387 5.148664,0.241468 3.893549,0.0058 4.819859,-0.05603 5.263001,-0.351105 z m 71.49933,0.07055 c 0.218211,-0.158152 1.316879,-2.306127 2.441481,-4.773279 1.124605,-2.467153 2.872451,-6.230804 3.884092,-8.363666 1.544072,-3.255365 1.839372,-4.07298 1.839372,-5.092852 0,-0.853629 -0.13761,-1.376411 -0.46271,-1.757985 l -0.46271,-0.54307 h -6.49413 c -7.102942,0 -8.00965,0.121805 -9.344027,1.255243 -0.726884,0.617426 -0.779415,0.767987 -0.860552,2.466506 -0.107985,2.260572 0.252346,2.818469 1.93697,2.99898 1.701357,0.182306 2.745572,-0.242031 3.189168,-1.295982 0.203519,-0.483546 0.567138,-0.956584 0.808046,-1.051196 0.610967,-0.239947 5.156563,-0.448076 5.156563,-0.236104 0,0.09532 -1.372716,2.981749 -3.050477,6.414298 -4.380266,8.961616 -4.598864,9.474827 -4.220372,9.908379 0.403791,0.462532 5.018819,0.520414 5.639286,0.07072 z M 83.343806,45.873359 c 0.417418,-1.072709 0.110396,-1.37263 -1.701704,-1.662353 -1.571562,-0.251267 -1.529384,0.0011 -1.608168,-9.625842 l -0.0715,-8.736646 -2.348267,0.117132 c -2.484478,0.123927 -6.669138,1.208437 -7.421075,1.923268 -1.089644,1.035881 0.09601,2.320023 1.92236,2.082047 1.934529,-0.252072 1.913587,-0.337322 1.711034,6.965679 -0.09656,3.481653 -0.276307,6.509214 -0.399424,6.727912 -0.123119,0.218698 -0.630866,0.459413 -1.128324,0.534926 -1.2314,0.186914 -1.616376,0.41467 -1.709474,1.011339 -0.176134,1.128833 0.06187,1.171541 6.528886,1.171541 5.999743,0 6.028508,-0.0024 6.225659,-0.509003 z M 68.192204,37.928483 c 0.987927,-1.04216 0.680365,-3.024142 -0.5441,-3.506307 -0.440058,-0.173283 -1.60316,-0.246251 -3.128952,-0.196296 -2.079415,0.06808 -2.501625,0.149064 -2.936985,0.563339 -0.769221,0.731963 -0.882286,2.12913 -0.23543,2.909227 0.521286,0.628658 0.543074,0.632603 3.494204,0.632603 2.521541,0 3.027231,-0.06074 3.351263,-0.402566 z"
       id="path923" />
    <path
       style="fill:#ffffff;stroke-width:0.235932"
       d="M 6.4234377,35.685617 V 17.167596 H 56.512675 106.60191 V 35.685617 54.203639 H 56.512675 6.4234377 Z M 54.621589,46.2584 c 2.529144,-0.505772 3.714678,-1.253567 4.294739,-2.708972 0.882763,-2.214913 -0.98083,-2.913787 -3.565425,-1.337091 -1.658329,1.01164 -3.834007,1.483622 -6.277077,1.361721 -2.393952,-0.119452 -3.043906,-0.474568 -3.934069,-2.149457 -0.580327,-1.091915 -0.604942,-1.311408 -0.604942,-5.393927 0,-4.079334 0.02507,-4.30336 0.604942,-5.405882 0.830266,-1.578603 2.090741,-2.185357 4.539863,-2.185357 2.764067,0 3.273818,0.393928 3.951871,3.053964 0.367157,1.44037 1.118145,2.006862 2.660455,2.006862 1.699986,0 2.351124,-0.359857 2.669327,-1.475219 0.292279,-1.024498 0.138928,-3.547903 -0.258514,-4.253889 -0.392412,-0.697051 -1.723274,-1.359025 -3.539357,-1.760491 -1.310603,-0.289723 -2.676582,-0.353637 -6.273002,-0.293516 -4.471288,0.07475 -4.635606,0.09462 -5.9827,0.723482 -3.226434,1.506196 -4.693281,4.420422 -4.94285,9.820084 -0.156408,3.384077 0.238943,5.607567 1.323997,7.44628 0.912844,1.546889 2.921645,2.584195 5.608933,2.896342 2.330204,0.270669 7.575961,0.08459 9.723809,-0.344934 z M 21.856125,46.2543 c 0.601479,-0.400506 0.702112,-1.066187 0.218819,-1.447492 -0.175435,-0.138416 -0.887177,-0.36751 -1.581645,-0.509098 -1.967426,-0.401119 -1.992274,-0.479997 -1.915532,-6.080898 l 0.06551,-4.781189 5.046357,6.3324 c 2.775497,3.48282 5.312305,6.447595 5.637353,6.588389 0.656956,0.284558 3.925989,0.344727 4.343134,0.07994 0.752939,-0.477946 0.822648,-1.252078 0.822648,-9.135804 v -7.961873 l 0.593945,-0.564639 c 0.326669,-0.310551 0.801987,-0.564636 1.056264,-0.564636 0.575998,0 1.73747,-0.84595 1.73747,-1.265473 0,-0.17156 -0.171112,-0.474597 -0.38025,-0.673415 -0.319984,-0.304195 -1.136874,-0.361488 -5.154111,-0.361488 -5.026632,0 -5.354604,0.0645 -5.354604,1.053009 0,0.635679 0.356435,0.909198 1.594918,1.223906 1.848516,0.469718 1.903397,0.627827 1.992589,5.740699 0.06827,3.913136 0.03268,4.473141 -0.265156,4.174376 -0.189197,-0.189782 -2.284388,-2.725945 -4.65598,-5.63592 -2.371592,-2.909975 -4.58655,-5.575535 -4.922128,-5.923467 l -0.610143,-0.632603 h -4.172041 c -3.470128,0 -4.236015,0.06082 -4.55229,0.361488 -0.88414,0.840513 -0.173473,1.740282 1.609104,2.03727 1.624685,0.270681 1.6403,0.345487 1.6403,7.858073 0,6.369114 -0.02431,6.733288 -0.486903,7.292355 -0.267796,0.323651 -0.839467,0.658324 -1.270378,0.743717 -1.18514,0.234858 -1.872374,0.7374 -1.872374,1.369178 0,0.307098 0.190558,0.663874 0.42346,0.792834 0.247089,0.136814 2.391508,0.237387 5.148664,0.241468 3.893549,0.0058 4.819859,-0.05603 5.263001,-0.351105 z m 71.49933,0.07055 c 0.218211,-0.158152 1.316879,-2.306127 2.441481,-4.773279 1.124605,-2.467153 2.872451,-6.230804 3.884092,-8.363666 1.544072,-3.255365 1.839372,-4.07298 1.839372,-5.092852 0,-0.853629 -0.13761,-1.376411 -0.46271,-1.757985 l -0.46271,-0.54307 h -6.49413 c -7.102942,0 -8.00965,0.121805 -9.344027,1.255243 -0.726884,0.617426 -0.779415,0.767987 -0.860552,2.466506 -0.107985,2.260572 0.252346,2.818469 1.93697,2.99898 1.701357,0.182306 2.745572,-0.242031 3.189168,-1.295982 0.203519,-0.483546 0.567138,-0.956584 0.808046,-1.051196 0.610967,-0.239947 5.156563,-0.448076 5.156563,-0.236104 0,0.09532 -1.372716,2.981749 -3.050477,6.414298 -4.380266,8.961616 -4.598864,9.474827 -4.220372,9.908379 0.403791,0.462532 5.018819,0.520414 5.639286,0.07072 z M 83.343806,45.873359 c 0.417418,-1.072709 0.110396,-1.37263 -1.701704,-1.662353 -1.571562,-0.251267 -1.529384,0.0011 -1.608168,-9.625842 l -0.0715,-8.736646 -2.348267,0.117132 c -2.484478,0.123927 -6.669138,1.208437 -7.421075,1.923268 -1.089644,1.035881 0.09601,2.320023 1.92236,2.082047 1.934529,-0.252072 1.913587,-0.337322 1.711034,6.965679 -0.09656,3.481653 -0.276307,6.509214 -0.399424,6.727912 -0.123119,0.218698 -0.630866,0.459413 -1.128324,0.534926 -1.2314,0.186914 -1.616376,0.41467 -1.709474,1.011339 -0.176134,1.128833 0.06187,1.171541 6.528886,1.171541 5.999743,0 6.028508,-0.0024 6.225659,-0.509003 z M 68.192204,37.928483 c 0.987927,-1.04216 0.680365,-3.024142 -0.5441,-3.506307 -0.440058,-0.173283 -1.60316,-0.246251 -3.128952,-0.196296 -2.079415,0.06808 -2.501625,0.149064 -2.936985,0.563339 -0.769221,0.731963 -0.882286,2.12913 -0.23543,2.909227 0.521286,0.628658 0.543074,0.632603 3.494204,0.632603 2.521541,0 3.027231,-0.06074 3.351263,-0.402566 z"
       id="path925" />
    <path
       id="path927"
       style="fill:#ffffff;stroke-width:0.235932"
       d="M 6.4235345,17.167796 V 35.685817 54.203839 H 56.512772 106.60201 V 35.685817 17.167796 H 56.512772 Z m 44.7799235,8.528911 c 1.962855,0.0062 2.977057,0.09676 3.960009,0.314055 1.816084,0.401465 3.146974,1.063276 3.539386,1.760327 0.397443,0.705985 0.550798,3.229398 0.258518,4.253895 -0.318202,1.115362 -0.969324,1.475477 -2.669309,1.475477 -1.54231,0 -2.293643,-0.566619 -2.6608,-2.006988 -0.678054,-2.660036 -1.187437,-3.053837 -3.951504,-3.053837 -2.449122,0 -3.709637,0.606753 -4.539905,2.185356 -0.579874,1.102521 -0.604943,1.326548 -0.604943,5.405882 0,4.08252 0.02462,4.301835 0.604943,5.39375 0.890163,1.674889 1.540068,2.029961 3.934019,2.149413 2.443069,0.121902 4.618892,-0.350163 6.277222,-1.361804 2.584595,-1.576695 4.448145,-0.877819 3.565381,1.337093 -0.58006,1.455406 -1.765948,2.203458 -4.295092,2.709231 -2.147849,0.429519 -7.393302,0.615276 -9.723507,0.344607 -2.687288,-0.312147 -4.696106,-1.349246 -5.608948,-2.896136 -1.085055,-1.838713 -1.480668,-4.062039 -1.324259,-7.446116 0.249567,-5.399662 1.716607,-8.313982 4.943042,-9.820179 1.347092,-0.628863 1.511499,-0.649062 5.982786,-0.723808 0.899107,-0.01504 1.658674,-0.02228 2.312961,-0.02021 z m 42.897511,0.0975 h 6.494151 l 0.46269,0.542744 c 0.32511,0.381576 0.46268,0.904451 0.46268,1.758081 0,1.019871 -0.29533,1.837361 -1.839405,5.092725 -1.01165,2.132862 -2.759315,5.89687 -3.883911,8.364021 -1.124605,2.467153 -2.223299,4.615129 -2.441512,4.773279 -0.620465,0.449687 -5.235886,0.391543 -5.63967,-0.07099 -0.378492,-0.433552 -0.159848,-0.946621 4.220418,-9.908237 1.677761,-3.432548 3.050705,-6.319227 3.050705,-6.414543 0,-0.211973 -4.545693,-0.0036 -5.15666,0.236327 -0.240908,0.09461 -0.604648,0.567799 -0.808167,1.051345 -0.443595,1.053951 -1.487825,1.478062 -3.189183,1.295758 -1.684616,-0.180513 -2.044744,-0.738453 -1.936758,-2.999026 0.08114,-1.698518 0.13374,-1.849188 0.860623,-2.466614 1.334378,-1.133435 2.241056,-1.254871 9.343999,-1.254871 z m -14.13864,0.05437 0.07184,8.736484 c 0.07879,9.626993 0.03626,9.374814 1.607824,9.626082 1.8121,0.289723 2.119293,0.589673 1.701875,1.662382 -0.19715,0.506651 -0.225968,0.509048 -6.22571,0.509048 -6.467015,0 -6.70526,-0.04292 -6.529125,-1.171754 0.0931,-0.596669 0.478508,-0.824443 1.709907,-1.011358 0.497458,-0.07551 1.005004,-0.316409 1.128123,-0.535105 0.123117,-0.2187 0.302792,-3.246047 0.399356,-6.727699 0.202554,-7.303001 0.223677,-7.217897 -1.710852,-6.965825 -1.826348,0.237976 -3.012227,-1.046141 -1.922582,-2.082021 0.751936,-0.714832 4.936937,-1.799043 7.421415,-1.922968 z m -64.008587,0.06066 h 4.17174 l 0.610142,0.632603 c 0.335577,0.347932 2.550654,3.013492 4.922246,5.923467 2.371593,2.909974 4.466969,5.446138 4.656167,5.63592 0.297847,0.298765 0.333391,-0.261238 0.265136,-4.174375 -0.08919,-5.112871 -0.144486,-5.271335 -1.993003,-5.741053 -1.238483,-0.314708 -1.59459,-0.588192 -1.59459,-1.223871 0,-0.988513 0.328053,-1.052691 5.354686,-1.052691 4.017236,0 4.833843,0.05703 5.153826,0.36123 0.209139,0.198818 0.380452,0.501929 0.380452,0.673488 0,0.419524 -1.161794,1.265658 -1.737792,1.265658 -0.254276,0 -0.729145,0.253759 -1.055813,0.564309 l -0.594073,0.564761 v 7.961905 c 0,7.883726 -0.06987,8.657957 -0.822817,9.135903 -0.417143,0.26479 -3.686343,0.204584 -4.343299,-0.07997 -0.325047,-0.140793 -2.86181,-3.105596 -5.637306,-6.588417 l -5.046071,-6.332321 -0.06569,4.780916 c -0.07674,5.600901 -0.05193,5.68005 1.915493,6.081169 0.694469,0.141587 1.406395,0.370631 1.581831,0.509048 0.483292,0.381305 0.38266,1.047116 -0.218819,1.447616 -0.443142,0.295072 -1.369452,0.356673 -5.263001,0.350899 -2.757156,-0.0041 -4.901538,-0.104455 -5.148627,-0.241269 -0.232903,-0.12896 -0.42346,-0.485904 -0.42346,-0.793002 0,-0.631778 0.687346,-1.134133 1.872487,-1.368993 0.430911,-0.08539 1.002583,-0.420381 1.270378,-0.744026 0.462587,-0.559067 0.48679,-0.923348 0.48679,-7.292461 0,-7.512586 -0.01574,-7.586988 -1.640434,-7.857668 -1.782577,-0.297008 -2.493381,-1.197045 -1.609241,-2.037559 0.316275,-0.300673 1.082536,-0.361231 4.552665,-0.361231 z m 49.636003,8.302018 c 0.991445,0.0076 1.728181,0.08076 2.058223,0.210717 1.224466,0.482165 1.532375,2.464566 0.544448,3.506726 -0.324031,0.34182 -0.829746,0.402566 -3.351287,0.402566 -2.951129,0 -2.9732,-0.004 -3.494486,-0.632603 -0.646855,-0.780097 -0.533862,-2.177653 0.235358,-2.909616 0.435361,-0.414275 0.857865,-0.494883 2.937279,-0.562964 0.381447,-0.01249 0.739985,-0.01734 1.070465,-0.01482 z" />
    <rect
       style="fill:#ffffff;fill-opacity:1;stroke-width:0.235932"
       id="rect932"
       width="111.75848"
       height="59.004627"
       x="1.0303485"
       y="0.68689919" />
  </g>
  <g
     inkscape:label="Layer 1"
     inkscape:groupmode="layer"
     id="layer1"
     transform="translate(-41.435463,-109.04791)"
     style="display:inline;opacity:1">
    <g
       id="g11640"
       transform="matrix(1.1871402,0,0,1.1871402,-13.644028,-25.118711)">
      <path
         sodipodi:nodetypes="ccccccccccccccccccccccccccccccccccccccccccccccccccccccccccccccccccccccccccccccccccccccc"
         inkscape:connector-curvature="0"
         d="m 100.10775,143.33203 c -1.198614,0.0967 -1.87284,0.69643 -1.846043,2.10774 0.0204,1.10866 0.647794,1.68188 1.841303,1.70475 l 3.59159,0.0185 c 1.21391,0 1.59208,-1.31848 1.60995,-1.72277 0.0331,-0.80483 -0.28893,-2.09375 -1.60995,-2.10774 h -1.91336 z m 13.79936,-8.02757 c -0.56201,0.009 -1.15378,0.0242 -1.64788,0.035 -1.46768,0.20342 -2.61085,0.64229 -5.01571,1.46488 -1.39372,0.55309 -0.9571,2.65307 1.52557,2.13051 1.68698,-0.19579 1.35808,0.70272 1.39378,1.51133 l -0.055,10.39552 c -0.0561,1.97071 -0.51654,2.02658 -1.46395,2.17789 h -0.4627 c -1.50721,0.12331 -1.26858,1.89936 -0.056,1.86121 h 4.49991 c 2.09248,0 4.13583,0.0129 5.35229,0.0129 1.17184,-0.0129 1.18746,-1.83235 -0.14885,-1.84889 h -0.25125 c -1.48935,-0.0217 -1.90337,-0.63328 -1.88681,-2.20349 V 138.9411 c 0,-1.54989 -0.028,-2.46022 0,-3.16966 0.0127,-0.22631 0.0103,-0.46648 -0.31669,-0.46648 -0.37297,-0.0129 -0.90478,-0.009 -1.46678,-9.6e-4 z m -58.281732,-0.13284 c -0.61381,0.005 -1.2861,0.0147 -2.086867,0.0569 -1.516118,0.0355 -1.539981,1.58247 -0.559414,1.85837 1.579877,0.45388 2.581541,0.12329 2.68611,2.05464 v 11.48396 c 0.02162,2.32034 -1.872554,2.39785 -1.876388,2.39785 -1.939466,0.28735 -1.950083,1.95571 -0.357459,2.01293 0,0 7.922731,-0.005 7.922731,-0.009 1.273844,-0.0395 1.977952,-1.63657 -0.359348,-1.95698 -1.693357,-0.23266 -2.094401,-0.60623 -2.028091,-2.59983 l -0.02185,-8.42429 c -0.05998,-0.22631 0.04677,-0.182 0.123265,-0.0147 -0.0011,0 9.307971,12.26146 9.307971,12.26146 0.448838,0.48695 0.86479,0.77391 1.592885,0.73576 0,0.005 2.496708,0.007 2.506904,0.007 1.324847,0 1.164326,-1.92758 1.164326,-1.92758 l -0.05883,-13.49498 c 0.03824,-2.30002 1.661277,-2.29038 2.05274,-2.4671 1.769874,-0.6535 1.28536,-1.86978 -0.07773,-1.91809 -0.790571,-0.0279 -6.686918,0.0165 -7.505541,0 -1.363106,0.0483 -1.73842,1.64469 0.308141,1.98162 0.689848,0.23902 1.864394,0.10344 1.900103,2.40357 0,0 -0.01025,7.66671 -0.01137,7.66671 0.07009,0.53272 -0.132756,0.1422 -0.132756,0.1422 l -9.227369,-11.83838 c -0.432269,-0.50476 -2.263787,-0.38323 -3.52616,-0.40866 -0.566789,0 -1.122243,-0.007 -1.736064,-0.005 z m 31.785723,-0.24653 c -0.51003,-7e-5 -1.057504,0.005 -1.647881,0.0114 -4.182396,0.11322 -6.000642,1.50444 -7.461929,4.16046 -1.457466,2.97894 -1.750859,9.06622 -0.502516,12.12017 0.416963,0.82642 0.462787,2.54492 4.252441,3.64089 2.806545,0.61536 8.82154,0.60636 12.1088,-0.59261 -0.0012,0.002 2.226254,-0.77143 2.226254,-3.22654 0.01395,-0.57848 -1.022322,-1.56116 -3.321364,0.0332 -1.986634,1.52698 -6.225507,1.73061 -8.000475,0.96522 -0.998421,-0.42339 -1.493226,-1.12269 -1.911467,-2.61024 -0.218044,-0.71327 -0.952428,-8.23786 0.617249,-10.4069 0.985665,-1.7749 4.309857,-1.83426 5.908857,-1.45919 1.609203,0.60264 1.420936,1.2052 2.050844,3.80397 0.585279,1.10614 1.449303,1.08171 2.715496,1.04865 2.049122,-0.1081 1.899141,-1.55899 1.899141,-3.13172 0.0178,-2.38647 -0.507399,-2.66848 -1.745538,-3.38302 -1.875545,-0.77204 -3.617699,-0.9731 -7.187912,-0.97376 z m 40.384479,-0.0147 c -3.13554,0 -6.01778,0.14386 -7.36047,1.19657 -0.94869,0.69801 -1.05753,1.32762 -1.08943,3.01607 0.10333,0.91288 -0.35671,2.74084 3.0976,2.28691 2.85244,-0.63822 -0.1064,-2.24832 4.01351,-2.53059 1.58625,-0.0344 2.67662,-0.0694 3.3792,-0.035 -2.04018,4.38895 -4.04619,8.81613 -6.72521,14.50193 -0.27925,0.63317 -0.77323,1.68201 0.35271,1.68201 h 3.73286 c 1.01882,-0.033 1.16291,-0.55903 1.47531,-1.40325 2.11926,-4.95347 3.66987,-8.46011 6.48534,-14.67356 0.42461,-0.81371 0.42441,-1.65319 0.24462,-2.66524 -0.28308,-1.09723 -1.51142,-1.33634 -2.53535,-1.37577 z"
         style="fill:#000000;fill-rule:evenodd;stroke:none;stroke-width:0.485452"
         id="path4956" />
      <path
         sodipodi:nodetypes="cccccccccccccccccccccccccccccccccccccccccccccccccccccccccccccccccccccccccccccccccccccccccccccccccccccccccccccccccccccccccccccccccccccc"
         inkscape:connector-curvature="0"
         id="path4952"
         transform="matrix(0.26458333,0,0,0.26458333,21.384877,111.40384)"
         d="M 94.533203,6.0957031 V 198.46484 H 455.46289 V 6.0957031 Z M 281.17969,18.992188 c 4.77551,0 8.68066,1.70725 10.36914,6.53125 l -5.42383,1.818359 c -0.79587,-2.352491 -2.28355,-3.289063 -4.7168,-3.289063 -1.7112,0 -3.77539,0.456426 -3.77539,2.587891 0,2.046387 2.38742,2.53459 3.93946,2.806641 2.22858,0.493152 5.22456,1.038429 7.13476,2.353515 2.22289,1.485166 3.59766,3.805802 3.59766,6.566407 0,2.703949 -1.27788,5.313658 -3.39844,6.974609 -2.18878,1.734576 -5.1724,2.251953 -7.92969,2.251953 -5.15071,0 -9.80573,-2.251787 -11.05078,-7.705078 l 5.90234,-1.369141 c 0.80159,2.913751 2.86837,3.935547 5.71094,3.935547 1.81925,0 4.25586,-0.698153 4.25586,-2.99414 0,-2.324145 -3.10983,-2.755227 -4.78125,-3.140626 -4.86077,-0.992088 -9.65039,-2.448856 -9.65039,-8.53125 0,-2.584932 0.98802,-4.866315 2.95508,-6.521484 1.98979,-1.711975 4.34284,-2.27539 6.86133,-2.27539 z m 39.14453,0 c 3.63277,0 6.51402,1.232551 8.6914,4.253906 1.96139,2.715288 2.95508,6.651627 2.95508,9.996094 0,3.163124 -0.8271,7.018682 -2.57812,9.660156 -2.13192,3.163162 -5.36167,4.691406 -9.06836,4.691406 -3.7067,0 -6.70084,-1.302584 -8.85547,-4.375 -1.98981,-2.868246 -2.86719,-6.478988 -2.86719,-9.976562 0,-7.369134 3.62135,-14.25 11.72266,-14.25 z m -162.3125,0.398437 h 7.42773 l 8.57227,27.791016 h -6.90234 l -1.66993,-5.695313 h -8.84765 l -1.72852,5.695313 h -5.62305 z m 19.69922,0 h 7.93945 c 3.93979,0 7.33757,0.252926 10.32227,3.132813 2.95624,2.828711 4.22851,6.681755 4.22851,10.689453 0,3.724346 -1.11756,7.336048 -3.55078,10.125 -2.70043,3.044107 -6.06966,3.84375 -9.93555,3.84375 h -9.0039 z m 26.79297,0 h 6.93359 v 16.824219 c 0,1.286702 -0.0373,3.168533 0.59961,4.291015 0.83571,1.456819 2.55861,1.851563 4.08789,1.851563 1.3019,0 3.16147,-0.395304 3.96875,-1.484375 0.87549,-1.258469 0.76172,-3.212685 0.76172,-4.658203 V 19.390625 h 5.5 v 16.824219 c 0,3.027023 0.0547,6.193713 -2.23633,8.466797 -2.18876,2.222097 -5.41603,2.914062 -8.41211,2.914062 -2.87666,0 -6.18268,-0.442304 -8.38281,-2.392578 -2.7118,-2.386507 -2.82031,-5.587084 -2.82031,-8.988281 z m 27.34765,0 h 6.37891 v 22.277344 h 11.00781 v 5.513672 h -17.38672 z m 16.14649,0 h 20.18554 v 5.511719 h -6.86523 v 22.279297 h -6.38672 V 24.902344 h -6.93359 z m 88.875,0 h 6.90039 l 9.13086,16.333984 h 0.0801 V 19.390625 h 4.9414 v 27.791016 h -5.45312 L 341.9668,28.507812 h -0.14649 v 18.673829 h -4.94726 z m 26.94531,0 h 6.38867 v 22.277344 h 10.99805 v 5.513672 h -17.38672 z m 14.98633,0 h 7.43164 l 5.2539,10.576172 5.19532,-10.576172 h 5.74218 l -8.58593,16.097656 v 11.69336 h -6.36719 v -11.69336 z m -58.48047,4.912109 c -2.19447,0 -3.38484,1.12928 -4.15234,3.169922 -0.62537,1.643981 -0.875,4.03687 -0.875,5.771485 0,3.497499 0.51904,9.037109 5.02734,9.037109 2.19447,0 3.39695,-1.083469 4.11328,-3.158203 0.64241,-1.700561 0.83594,-3.991692 0.83594,-5.833985 0,-2.029303 -0.19078,-4.406742 -0.99219,-6.277343 -0.80164,-1.86497 -1.96155,-2.708985 -3.95703,-2.708985 z m -136.23828,0.207032 v 17.449218 h 2.14844 c 2.69473,0 4.39295,-0.524865 5.87109,-2.945312 1.07448,-1.791232 1.51367,-3.923541 1.51367,-6.003906 0,-2.176781 -0.63023,-4.523959 -1.94922,-6.28125 -1.47243,-1.955679 -3.11428,-2.21875 -5.37695,-2.21875 z m -23.0293,2.101562 -2.92969,9.759766 h 5.83399 z m -61.171874,30.8125 H 449.80469 V 193.33008 H 99.884766 Z"
         style="fill:#000000;fill-rule:evenodd;stroke:none;stroke-width:1.78712" />
    </g>
  </g>
</svg>
